<?xml version="1.0" encoding="UTF-8"?>
<!DOCTYPE svg PUBLIC "-//W3C//DTD SVG 1.1//EN" "http://www.w3.org/Graphics/SVG/1.1/DTD/svg11.dtd">
<svg xmlns="http://www.w3.org/2000/svg" version="1.1" width="365px" height="116px" style="shape-rendering:geometricPrecision; text-rendering:geometricPrecision; image-rendering:optimizeQuality; fill-rule:evenodd; clip-rule:evenodd" xmlns:xlink="http://www.w3.org/1999/xlink">
<g><path style="opacity:0.927" fill="#72357a" d="M 165.5,-0.5 C 171.5,-0.5 177.5,-0.5 183.5,-0.5C 199.116,1.60291 211.283,9.26958 220,22.5C 221.081,27.2363 222.414,31.9029 224,36.5C 229.721,42.7108 235.721,48.7108 242,54.5C 247.081,63.665 252.415,72.665 258,81.5C 270.518,94.6085 285.018,97.1085 301.5,89C 322.598,77.2292 335.098,59.3959 339,35.5C 341.941,25.5231 348.108,22.6898 357.5,27C 361.291,32.7047 363.625,38.8714 364.5,45.5C 364.5,52.8333 364.5,60.1667 364.5,67.5C 352.847,103.694 327.847,119.194 289.5,114C 273.302,111.155 260.136,103.322 250,90.5C 245.91,79.2208 241.243,68.2208 236,57.5C 233.149,53.4936 229.315,51.1602 224.5,50.5C 221.146,69.0409 213.146,85.2076 200.5,99C 181.607,113.454 160.94,116.454 138.5,108C 127.44,104.616 121.107,97.2822 119.5,86C 119.073,78.043 122.74,75.043 130.5,77C 159.072,90.6488 181.905,84.1488 199,57.5C 200.741,54.6907 201.908,51.6907 202.5,48.5C 198.781,48.0025 195.447,48.8358 192.5,51C 188.554,57.2794 184.221,63.2794 179.5,69C 170.531,72.5212 165.864,69.5212 165.5,60C 167.739,45.7608 176.072,37.4274 190.5,35C 194.871,34.8275 199.204,34.3275 203.5,33.5C 199.717,11.8788 187.05,3.04551 165.5,7C 144.136,10.597 125.969,20.097 111,35.5C 97.7504,55.6638 84.7504,75.9971 72,96.5C 64.8277,105.981 55.6611,112.314 44.5,115.5C 39.1667,115.5 33.8333,115.5 28.5,115.5C 10.9391,109.388 1.27246,97.0549 -0.5,78.5C -0.5,77.8333 -0.5,77.1667 -0.5,76.5C 2.67312,57.4892 13.3398,44.6559 31.5,38C 44.117,34.2886 52.117,38.6219 55.5,51C 53.6697,57.499 49.6697,62.1657 43.5,65C 36.6757,67.9091 30.3424,71.5757 24.5,76C 18.5487,84.7641 19.5487,92.7641 27.5,100C 43.0922,104.312 56.2589,100.479 67,88.5C 76.7583,73.3228 85.7583,57.6561 94,41.5C 112.303,18.0978 136.137,4.09785 165.5,-0.5 Z M 28.5,46.5 C 28.0269,47.9063 27.0269,48.573 25.5,48.5C 25.9731,47.0937 26.9731,46.427 28.5,46.5 Z M 25.5,48.5 C 23.1667,51.5 20.5,54.1667 17.5,56.5C 19.1667,52.8333 21.8333,50.1667 25.5,48.5 Z M 17.5,56.5 C 17.573,58.0269 16.9063,59.0269 15.5,59.5C 15.427,57.9731 16.0937,56.9731 17.5,56.5 Z M 340.5,78.5 C 335.315,86.9388 327.982,92.7721 318.5,96C 306.442,100.456 294.109,101.456 281.5,99C 304.292,100.569 323.958,93.7353 340.5,78.5 Z M 132.5,94.5 C 147.543,100.399 162.876,101.566 178.5,98C 165.271,103.403 151.938,103.737 138.5,99C 135.894,98.2082 133.894,96.7082 132.5,94.5 Z"/></g>
</svg>
