<?xml version="1.0" encoding="UTF-8"?>
<!DOCTYPE svg PUBLIC "-//W3C//DTD SVG 1.1//EN" "http://www.w3.org/Graphics/SVG/1.1/DTD/svg11.dtd">
<svg xmlns="http://www.w3.org/2000/svg" version="1.1" width="365px" height="116px" style="shape-rendering:geometricPrecision; text-rendering:geometricPrecision; image-rendering:optimizeQuality; fill-rule:evenodd; clip-rule:evenodd" xmlns:xlink="http://www.w3.org/1999/xlink">
<g><path style="opacity:0.927" fill="#72357a" d="M 180.5,-0.5 C 186.5,-0.5 192.5,-0.5 198.5,-0.5C 227.863,4.09785 251.697,18.0978 270,41.5C 278.242,57.6561 287.242,73.3228 297,88.5C 307.741,100.479 320.908,104.312 336.5,100C 344.451,92.7641 345.451,84.7641 339.5,76C 333.658,71.5757 327.324,67.9091 320.5,65C 307.257,58.3238 305.59,49.6571 315.5,39C 333.999,35.1653 348.166,41.332 358,57.5C 361.306,63.5864 363.472,69.9198 364.5,76.5C 364.5,77.1667 364.5,77.8333 364.5,78.5C 362.728,97.0549 353.061,109.388 335.5,115.5C 330.167,115.5 324.833,115.5 319.5,115.5C 308.339,112.314 299.172,105.981 292,96.5C 279.25,75.9971 266.25,55.6638 253,35.5C 233.36,15.6003 209.526,6.10035 181.5,7C 173.192,9.30417 167.359,14.4708 164,22.5C 162.731,26.1414 161.564,29.8081 160.5,33.5C 174.217,33.0096 185.717,37.6762 195,47.5C 199.3,54.7072 199.466,61.8738 195.5,69C 189.103,71.8913 183.936,70.3913 180,64.5C 177.483,58.2756 173.65,53.1089 168.5,49C 166.19,48.5034 163.857,48.3367 161.5,48.5C 170.729,72.7899 188.395,84.6233 214.5,84C 220.734,81.3821 227.068,79.0488 233.5,77C 241.26,75.043 244.927,78.043 244.5,86C 242.893,97.2822 236.56,104.616 225.5,108C 189.483,119.398 163.316,108.232 147,74.5C 143.788,66.6995 141.288,58.6995 139.5,50.5C 134.685,51.1602 130.851,53.4936 128,57.5C 122.757,68.2208 118.09,79.2208 114,90.5C 97.4956,110.341 76.3289,118.174 50.5,114C 23.4179,109.413 6.41787,93.9127 -0.5,67.5C -0.5,60.1667 -0.5,52.8333 -0.5,45.5C 0.375246,38.8714 2.70858,32.7047 6.5,27C 15.8923,22.6898 22.059,25.5231 25,35.5C 29.4014,62.5662 44.2347,81.3995 69.5,92C 84.0283,96.3762 96.195,92.8762 106,81.5C 111.585,72.665 116.919,63.665 122,54.5C 128.279,48.7108 134.279,42.7108 140,36.5C 141.726,22.8771 148.559,12.7104 160.5,6C 166.992,2.89064 173.658,0.723978 180.5,-0.5 Z M 335.5,46.5 C 337.027,46.427 338.027,47.0937 338.5,48.5C 336.973,48.573 335.973,47.9063 335.5,46.5 Z M 338.5,48.5 C 342.167,50.1667 344.833,52.8333 346.5,56.5C 343.5,54.1667 340.833,51.5 338.5,48.5 Z M 346.5,56.5 C 347.906,56.9731 348.573,57.9731 348.5,59.5C 347.094,59.0269 346.427,58.0269 346.5,56.5 Z M 23.5,78.5 C 40.0417,93.7353 59.7084,100.569 82.5,99C 64.4084,102.514 47.7417,99.1802 32.5,89C 28.8926,85.9023 25.8926,82.4023 23.5,78.5 Z M 231.5,94.5 C 230.106,96.7082 228.106,98.2082 225.5,99C 212.062,103.737 198.729,103.403 185.5,98C 201.124,101.566 216.457,100.399 231.5,94.5 Z"/></g>
</svg>
