<?xml version="1.0" encoding="UTF-8" standalone="no"?>
<!-- Created with Inkscape (http://www.inkscape.org/) -->

<svg
   version="1.1"
   id="svg1"
   width="793.70642"
   height="793.70642"
   viewBox="0 0 793.70642 793.70642"
   sodipodi:docname="194488.ai"
   inkscape:version="1.3.2 (091e20e, 2023-11-25)"
   inkscape:dataloss="true"
   xmlns:inkscape="http://www.inkscape.org/namespaces/inkscape"
   xmlns:sodipodi="http://sodipodi.sourceforge.net/DTD/sodipodi-0.dtd"
   xmlns="http://www.w3.org/2000/svg"
   xmlns:svg="http://www.w3.org/2000/svg">
  <defs
     id="defs1">
    <clipPath
       clipPathUnits="userSpaceOnUse"
       id="clipPath3">
      <path
         d="M 0,623.627 H 623.627 V 0 H 0 Z"
         transform="translate(-335.50121,-466.02551)"
         id="path3" />
    </clipPath>
    <clipPath
       clipPathUnits="userSpaceOnUse"
       id="clipPath5">
      <path
         d="M 0,623.627 H 623.627 V 0 H 0 Z"
         transform="translate(-207.10311,-498.48701)"
         id="path5" />
    </clipPath>
    <clipPath
       clipPathUnits="userSpaceOnUse"
       id="clipPath7">
      <path
         d="M 0,623.627 H 623.627 V 0 H 0 Z"
         transform="translate(-130.5952,-424.25911)"
         id="path7" />
    </clipPath>
    <clipPath
       clipPathUnits="userSpaceOnUse"
       id="clipPath9">
      <path
         d="M 0,623.627 H 623.627 V 0 H 0 Z"
         transform="translate(-101.4514,-321.72201)"
         id="path9" />
    </clipPath>
    <clipPath
       clipPathUnits="userSpaceOnUse"
       id="clipPath11">
      <path
         d="M 0,623.627 H 623.627 V 0 H 0 Z"
         transform="translate(-198.6651,-215.1456)"
         id="path11" />
    </clipPath>
    <clipPath
       clipPathUnits="userSpaceOnUse"
       id="clipPath13">
      <path
         d="M 0,623.627 H 623.627 V 0 H 0 Z"
         transform="translate(-194.63061,-179.4168)"
         id="path13" />
    </clipPath>
    <clipPath
       clipPathUnits="userSpaceOnUse"
       id="clipPath15">
      <path
         d="M 0,623.627 H 623.627 V 0 H 0 Z"
         transform="translate(-279.21931,-171.1893)"
         id="path15" />
    </clipPath>
    <clipPath
       clipPathUnits="userSpaceOnUse"
       id="clipPath17">
      <path
         d="M 0,623.627 H 623.627 V 0 H 0 Z"
         transform="translate(-407.61731,-138.7278)"
         id="path17" />
    </clipPath>
    <clipPath
       clipPathUnits="userSpaceOnUse"
       id="clipPath19">
      <path
         d="M 0,623.627 H 623.627 V 0 H 0 Z"
         transform="translate(-484.12521,-212.9556)"
         id="path19" />
    </clipPath>
    <clipPath
       clipPathUnits="userSpaceOnUse"
       id="clipPath21">
      <path
         d="M 0,623.627 H 623.627 V 0 H 0 Z"
         transform="translate(-513.26911,-315.49281)"
         id="path21" />
    </clipPath>
    <clipPath
       clipPathUnits="userSpaceOnUse"
       id="clipPath23">
      <path
         d="M 0,623.627 H 623.627 V 0 H 0 Z"
         transform="translate(-416.05541,-422.06921)"
         id="path23" />
    </clipPath>
    <clipPath
       clipPathUnits="userSpaceOnUse"
       id="clipPath25">
      <path
         d="M 0,623.627 H 623.627 V 0 H 0 Z"
         transform="translate(-420.08981,-457.79801)"
         id="path25" />
    </clipPath>
    <clipPath
       clipPathUnits="userSpaceOnUse"
       id="clipPath27">
      <path
         d="M 0,623.627 H 623.627 V 0 H 0 Z"
         transform="translate(-307.36031,-446.20701)"
         id="path27" />
    </clipPath>
  </defs>
  <sodipodi:namedview
     id="namedview1"
     pagecolor="#ffffff"
     bordercolor="#000000"
     borderopacity="0.25"
     inkscape:showpageshadow="2"
     inkscape:pageopacity="0.0"
     inkscape:pagecheckerboard="0"
     inkscape:deskcolor="#d1d1d1"
     inkscape:zoom="0.77690673"
     inkscape:cx="396.44399"
     inkscape:cy="397.73114"
     inkscape:window-width="1920"
     inkscape:window-height="1027"
     inkscape:window-x="0"
     inkscape:window-y="25"
     inkscape:window-maximized="1"
     inkscape:current-layer="group-MC0">
    <inkscape:page
       x="0"
       y="0"
       inkscape:label="1"
       id="page1"
       width="793.70642"
       height="793.70642"
       margin="58.740799 55.618668 40.622665 43.744534"
       bleed="18.8976 18.898666 18.898666 18.8976"
       inkscape:export-filename="194488.ai.svg"
       inkscape:export-xdpi="96"
       inkscape:export-ydpi="96" />
  </sodipodi:namedview>
  <g
     id="g1"
     inkscape:groupmode="layer"
     inkscape:label="1"
     transform="matrix(1.1363499,0,0,1.0856048,-47.364233,-24.139845)">
    <g
       id="group-MC0">
      <path
         id="path2"
         d="m 0,0 c -3.365,5.64 -7.452,16.526 -0.11,29.489 20.557,36.295 -4.983,83.471 -4.983,83.471 0,0 5.606,-33.626 -19.933,-54.469 C -56.366,32.914 -62.283,6.668 -63.39,-1.528 -52.084,1.194 -40.283,2.646 -28.141,2.646 -18.521,2.646 -9.117,1.73 0,0"
         style="fill:#f4e462;fill-opacity:1;fill-rule:nonzero;stroke:none"
         transform="matrix(1.3333333,0,0,-1.3333333,428.43733,191.23773)"
         clip-path="url(#clipPath3)" />
      <path
         id="path4"
         d="m 0,0 c -14.367,-37.86 -6.336,-63.562 -3.205,-71.184 15.315,14.581 33.711,25.951 54.107,33.052 -5.735,3.207 -14.7,10.591 -14.823,25.474 C 35.734,29.053 -9.972,57.139 -9.972,57.139 -9.972,57.139 11.696,30.821 0,0"
         style="fill:#f4e462;fill-opacity:1;fill-rule:nonzero;stroke:none"
         transform="matrix(1.3333333,0,0,-1.3333333,257.23987,147.95573)"
         clip-path="url(#clipPath5)" />
      <path
         id="path6"
         d="m 0,0 c 6.479,-39.921 26.244,-58.169 32.792,-63.231 6.114,20.782 16.595,39.692 30.396,55.659 -6.564,-0.098 -18.05,1.796 -25.614,14.65 -21.153,35.949 -74.78,37.42 -74.78,37.42 0,0 31.925,-11.958 37.206,-44.498"
         style="fill:#f4e462;fill-opacity:1;fill-rule:nonzero;stroke:none"
         transform="matrix(1.3333333,0,0,-1.3333333,155.22933,246.92627)"
         clip-path="url(#clipPath7)" />
      <path
         id="path8"
         d="m 0,0 c 25.577,-31.34 51.823,-37.256 60.019,-38.364 -2.722,11.306 -4.174,23.108 -4.174,35.249 0,9.62 0.916,19.025 2.646,28.141 -5.64,-3.365 -16.526,-7.452 -29.49,-0.109 -36.294,20.556 -83.471,-4.984 -83.471,-4.984 0,0 33.626,5.607 54.47,-19.933"
         style="fill:#f4e462;fill-opacity:1;fill-rule:nonzero;stroke:none"
         transform="matrix(1.3333333,0,0,-1.3333333,116.37093,383.6424)"
         clip-path="url(#clipPath9)" />
      <path
         id="path10"
         d="m 0,0 c -14.582,15.315 -25.952,33.711 -33.053,54.107 -3.207,-5.735 -10.59,-14.7 -25.474,-14.823 -41.71,-0.345 -69.796,-46.051 -69.796,-46.051 0,0 26.317,21.668 57.139,9.972 C -33.324,-11.163 -7.622,-3.132 0,0"
         style="fill:#f4e462;fill-opacity:1;fill-rule:nonzero;stroke:none"
         transform="matrix(1.3333333,0,0,-1.3333333,245.9892,525.74427)"
         clip-path="url(#clipPath11)" />
      <path
         id="path12"
         d="m 0,0 c -35.949,-21.154 -37.42,-74.78 -37.42,-74.78 0,0 11.958,31.924 44.498,37.206 39.921,6.479 58.169,26.244 63.231,32.792 C 49.527,1.331 30.617,11.813 14.65,25.614 14.748,19.05 12.854,7.563 0,0"
         style="fill:#f4e462;fill-opacity:1;fill-rule:nonzero;stroke:none"
         transform="matrix(1.3333333,0,0,-1.3333333,240.60987,573.38267)"
         clip-path="url(#clipPath13)" />
      <path
         id="path14"
         d="m 0,0 c 3.365,-5.64 7.452,-16.526 0.11,-29.489 -20.557,-36.295 4.983,-83.472 4.983,-83.472 0,0 -5.606,33.626 19.933,54.47 C 56.366,-32.914 62.283,-6.668 63.39,1.528 52.084,-1.194 40.283,-2.646 28.141,-2.646 18.521,-2.646 9.117,-1.73 0,0"
         style="fill:#f4e462;fill-opacity:1;fill-rule:nonzero;stroke:none"
         transform="matrix(1.3333333,0,0,-1.3333333,353.3948,584.35267)"
         clip-path="url(#clipPath15)" />
      <path
         id="path16"
         d="M 0,0 C 14.367,37.86 6.336,63.563 3.205,71.185 -12.11,56.603 -30.506,45.233 -50.902,38.132 c 5.735,-3.207 14.7,-10.591 14.823,-25.474 0.345,-41.71 46.051,-69.797 46.051,-69.797 0,0 -21.668,26.318 -9.972,57.139"
         style="fill:#f4e462;fill-opacity:1;fill-rule:nonzero;stroke:none"
         transform="matrix(1.3333333,0,0,-1.3333333,524.59213,627.63467)"
         clip-path="url(#clipPath17)" />
      <path
         id="path18"
         d="M 0,0 C -6.479,39.921 -26.244,58.169 -32.792,63.231 -38.906,42.449 -49.387,23.539 -63.188,7.572 c 6.564,0.098 18.05,-1.796 25.614,-14.65 21.153,-35.949 74.779,-37.42 74.779,-37.42 0,0 -31.924,11.958 -37.205,44.498"
         style="fill:#f4e462;fill-opacity:1;fill-rule:nonzero;stroke:none"
         transform="matrix(1.3333333,0,0,-1.3333333,626.60267,528.66427)"
         clip-path="url(#clipPath19)" />
      <path
         id="path20"
         d="m 0,0 c -25.577,31.339 -51.823,37.256 -60.019,38.364 2.722,-11.306 4.174,-23.107 4.174,-35.249 0,-9.62 -0.916,-19.025 -2.646,-28.141 5.64,3.365 16.526,7.452 29.49,0.109 36.294,-20.556 83.471,4.984 83.471,4.984 0,0 -33.626,-5.607 -54.47,19.933"
         style="fill:#f4e462;fill-opacity:1;fill-rule:nonzero;stroke:none"
         transform="matrix(1.3333333,0,0,-1.3333333,665.4612,391.948)"
         clip-path="url(#clipPath21)" />
      <path
         id="path22"
         d="m 0,0 c 14.582,-15.315 25.952,-33.711 33.053,-54.107 3.207,5.735 10.59,14.7 25.474,14.823 41.71,0.345 69.796,46.051 69.796,46.051 0,0 -26.317,-21.668 -57.139,-9.972 C 33.325,11.163 7.622,3.132 0,0"
         style="fill:#f4e462;fill-opacity:1;fill-rule:nonzero;stroke:none"
         transform="matrix(1.3333333,0,0,-1.3333333,535.84293,249.84613)"
         clip-path="url(#clipPath23)" />
      <path
         id="path24"
         d="m 0,0 c 35.95,21.154 37.42,74.78 37.42,74.78 0,0 -11.958,-31.924 -44.498,-37.206 C -46.999,31.095 -65.247,11.331 -70.308,4.782 -49.527,-1.331 -30.617,-11.813 -14.65,-25.614 -14.748,-19.05 -12.854,-7.563 0,0"
         style="fill:#f4e462;fill-opacity:1;fill-rule:nonzero;stroke:none"
         transform="matrix(1.3333333,0,0,-1.3333333,541.22213,202.20773)"
         clip-path="url(#clipPath25)" />
      <path
         id="path26"
         d="m 0,0 c -70.471,0 -127.6,-57.128 -127.6,-127.6 0,-70.471 57.129,-127.599 127.6,-127.599 70.471,0 127.599,57.128 127.599,127.599 C 127.599,-57.128 70.471,0 0,0"
         style="fill:#f4e462;fill-opacity:1;fill-rule:nonzero;stroke:none"
         transform="matrix(1.3333333,0,0,-1.3333333,390.91613,217.6624)"
         clip-path="url(#clipPath27)" />
    </g>
  </g>
</svg>
