<?xml version="1.0" encoding="UTF-8"?>
<!DOCTYPE svg PUBLIC "-//W3C//DTD SVG 1.1//EN" "http://www.w3.org/Graphics/SVG/1.1/DTD/svg11.dtd">
<svg xmlns="http://www.w3.org/2000/svg" version="1.1" width="608px" height="607px" style="shape-rendering:geometricPrecision; text-rendering:geometricPrecision; image-rendering:optimizeQuality; fill-rule:evenodd; clip-rule:evenodd" xmlns:xlink="http://www.w3.org/1999/xlink">
<g><path style="opacity:0.996" fill="#000000" d="M -0.5,-0.5 C 202.167,-0.5 404.833,-0.5 607.5,-0.5C 607.5,195.833 607.5,392.167 607.5,588.5C 606.677,591.977 606.177,595.644 606,599.5C 605,596.167 604,592.833 603,589.5C 600.521,586.931 597.854,584.598 595,582.5C 593.72,578.841 592.22,575.341 590.5,572C 586.035,571.434 582.035,569.767 578.5,567C 574.467,562.632 570.134,558.632 565.5,555C 554.798,554.003 545.465,550.003 537.5,543C 526.581,540.31 518.414,534.143 513,524.5C 511.741,512.388 507.908,501.221 501.5,491C 495.814,487.966 490.147,484.966 484.5,482C 475.389,481.898 466.389,482.731 457.5,484.5C 457.148,481.572 456.482,478.738 455.5,476C 448.663,474.957 441.996,473.291 435.5,471C 431.795,469.301 429.628,466.467 429,462.5C 426.208,389.83 424.208,317.164 423,244.5C 418.143,226.066 413.143,207.733 408,189.5C 406.944,195.668 405.277,201.668 403,207.5C 402.027,205.608 401.36,203.608 401,201.5C 400.167,203.5 399.333,205.5 398.5,207.5C 398.167,206.667 397.833,205.833 397.5,205C 396.561,194.862 396.227,184.696 396.5,174.5C 407.756,174.244 408.089,172.744 397.5,170C 393.513,162.973 395.513,158.64 403.5,157C 400.649,155.711 397.649,155.211 394.5,155.5C 394.5,147.833 394.5,140.167 394.5,132.5C 392.473,132.662 390.473,132.495 388.5,132C 387.809,130.933 387.309,129.766 387,128.5C 379.273,85.8034 371.44,43.1368 363.5,0.5C 354.554,40.3964 346.054,80.3964 338,120.5C 336.914,126.858 334.914,132.858 332,138.5C 331.186,144.864 330.186,151.197 329,157.5C 325.871,158.13 322.704,158.796 319.5,159.5C 326.821,160.794 329.655,165.128 328,172.5C 324.906,172.793 323.406,174.459 323.5,177.5C 324.833,177.5 326.167,177.5 327.5,177.5C 327.5,188.167 327.5,198.833 327.5,209.5C 325.856,209.714 324.356,209.38 323,208.5C 322.667,206.5 322.333,204.5 322,202.5C 321.667,203.5 321.333,204.5 321,205.5C 320.626,218.516 319.959,231.516 319,244.5C 318.125,248.874 315.625,251.874 311.5,253.5C 310.839,256.992 309.506,260.159 307.5,263C 303.179,263.499 298.846,263.666 294.5,263.5C 294.153,269.047 294.82,274.38 296.5,279.5C 295.484,286.342 293.984,293.008 292,299.5C 291.333,288.167 291.333,276.833 292,265.5C 292.178,260.379 293.011,255.379 294.5,250.5C 289.043,230.712 284.543,210.712 281,190.5C 276.484,210.731 270.651,230.564 263.5,250C 263.862,251.225 264.362,252.391 265,253.5C 264.771,299.89 263.104,346.223 260,392.5C 259.097,393.701 257.931,394.535 256.5,395C 257.416,395.374 258.25,395.874 259,396.5C 259.829,401.864 259.663,407.198 258.5,412.5C 255.671,413.747 253.005,415.247 250.5,417C 251.91,417.368 252.91,418.201 253.5,419.5C 247.799,424.352 241.466,428.185 234.5,431C 236.677,432.202 239.011,432.702 241.5,432.5C 241.5,435.167 241.5,437.833 241.5,440.5C 238.708,440.548 236.875,439.215 236,436.5C 232.683,447.648 226.517,456.814 217.5,464C 213.5,466.333 209.5,468.667 205.5,471C 206.905,472.269 208.571,472.769 210.5,472.5C 211.497,480.19 208.83,486.19 202.5,490.5C 203.325,491.386 204.325,491.719 205.5,491.5C 205.5,494.833 205.5,498.167 205.5,501.5C 194.992,498.184 184.325,497.684 173.5,500C 167.444,504.696 160.777,508.363 153.5,511C 146.183,521.643 136.183,528.31 123.5,531C 115.784,534.189 109.117,538.856 103.5,545C 95.3363,550.583 87.0029,555.916 78.5,561C 76.1667,563.333 73.8333,565.667 71.5,568C 64.3988,570.941 57.0655,572.941 49.5,574C 43.0157,580.097 36.6824,586.43 30.5,593C 18.0558,589.727 7.72248,592.893 -0.5,602.5C -0.5,401.5 -0.5,200.5 -0.5,-0.5 Z"/></g>
<g><path style="opacity:0.75" fill="#000000" d="M 358.5,126.5 C 359.5,126.5 360.5,126.5 361.5,126.5C 362.76,134.504 362.76,142.504 361.5,150.5C 360.167,150.5 358.833,150.5 357.5,150.5C 357.39,142.475 357.724,134.475 358.5,126.5 Z"/></g>
<g><path style="opacity:0.742" fill="#000000" d="M 364.5,139.5 C 365.496,139.414 366.329,139.748 367,140.5C 367.498,143.817 367.665,147.15 367.5,150.5C 366.5,150.5 365.5,150.5 364.5,150.5C 364.5,146.833 364.5,143.167 364.5,139.5 Z"/></g>
<g><path style="opacity:0.852" fill="#000000" d="M 352.5,140.5 C 353.5,140.5 354.5,140.5 355.5,140.5C 355.5,143.833 355.5,147.167 355.5,150.5C 354.5,150.5 353.5,150.5 352.5,150.5C 352.5,147.167 352.5,143.833 352.5,140.5 Z"/></g>
<g><path style="opacity:0.658" fill="#000000" d="M 379.5,158.5 C 380.787,159.871 381.453,161.705 381.5,164C 381.333,165.833 381.167,167.667 381,169.5C 379.663,165.974 379.163,162.308 379.5,158.5 Z"/></g>
<g><path style="opacity:0.593" fill="#000000" d="M 384.5,159.5 C 387.789,163.282 388.289,167.616 386,172.5C 384.569,168.365 384.069,164.032 384.5,159.5 Z"/></g>
<g><path style="opacity:0.658" fill="#000000" d="M 388.5,161.5 C 389.787,162.871 390.453,164.705 390.5,167C 390.333,168.833 390.167,170.667 390,172.5C 388.663,168.974 388.163,165.308 388.5,161.5 Z"/></g>
<g><path style="opacity:0.399" fill="#000000" d="M 339.5,163.5 C 340.629,165.628 340.796,167.961 340,170.5C 339.503,168.19 339.337,165.857 339.5,163.5 Z"/></g>
<g><path style="opacity:0.407" fill="#000000" d="M 335.5,164.5 C 336.634,166.966 336.801,169.633 336,172.5C 335.503,169.854 335.336,167.187 335.5,164.5 Z"/></g>
<g><path style="opacity:0.371" fill="#000000" d="M 331.5,166.5 C 332.634,168.966 332.801,171.633 332,174.5C 331.503,171.854 331.336,169.187 331.5,166.5 Z"/></g>
<g><path style="opacity:0.746" fill="#000000" d="M 368.5,177.5 C 369.222,177.918 369.722,178.584 370,179.5C 370.5,187.493 370.666,195.493 370.5,203.5C 369.167,203.5 367.833,203.5 366.5,203.5C 366.136,194.7 366.803,186.034 368.5,177.5 Z"/></g>
<g><path style="opacity:0.804" fill="#000000" d="M 349.5,178.5 C 350.5,178.5 351.5,178.5 352.5,178.5C 352.5,186.833 352.5,195.167 352.5,203.5C 350.833,203.5 349.167,203.5 347.5,203.5C 348.078,195.155 348.745,186.822 349.5,178.5 Z"/></g>
<g><path style="opacity:0.804" fill="#000000" d="M 355.5,178.5 C 356.5,178.5 357.5,178.5 358.5,178.5C 358.5,186.833 358.5,195.167 358.5,203.5C 356.833,203.5 355.167,203.5 353.5,203.5C 354.078,195.155 354.745,186.822 355.5,178.5 Z"/></g>
<g><path style="opacity:0.804" fill="#000000" d="M 361.5,178.5 C 362.5,178.5 363.5,178.5 364.5,178.5C 364.5,186.833 364.5,195.167 364.5,203.5C 362.833,203.5 361.167,203.5 359.5,203.5C 360.078,195.155 360.745,186.822 361.5,178.5 Z"/></g>
<g><path style="opacity:0.469" fill="#000000" d="M 379.5,179.5 C 380.777,180.694 381.444,182.36 381.5,184.5C 381.333,186.167 381.167,187.833 381,189.5C 379.957,186.243 379.457,182.91 379.5,179.5 Z"/></g>
<g><path style="opacity:0.673" fill="#000000" d="M 384.5,180.5 C 385.748,181.334 386.415,182.667 386.5,184.5C 387.863,191.573 387.529,198.573 385.5,205.5C 384.502,197.193 384.169,188.86 384.5,180.5 Z"/></g>
<g><path style="opacity:0.52" fill="#000000" d="M 338.5,181.5 C 341.369,183.26 341.869,185.594 340,188.5C 338.648,186.406 338.148,184.073 338.5,181.5 Z"/></g>
<g><path style="opacity:0.645" fill="#000000" d="M 388.5,182.5 C 389.82,185.428 390.486,188.761 390.5,192.5C 390.333,195.833 390.167,199.167 390,202.5C 388.623,195.924 388.123,189.257 388.5,182.5 Z"/></g>
<g><path style="opacity:0.357" fill="#000000" d="M 335.5,187.5 C 336.648,191.981 336.815,196.648 336,201.5C 335.501,196.845 335.334,192.179 335.5,187.5 Z"/></g>
<g><path style="opacity:0.357" fill="#000000" d="M 331.5,189.5 C 332.648,193.981 332.815,198.648 332,203.5C 331.501,198.845 331.334,194.179 331.5,189.5 Z"/></g>
<g><path style="opacity:0.92" fill="#000000" d="M 336.5,295.5 C 340.17,295.327 342.67,296.993 344,300.5C 344.667,323.167 344.667,345.833 344,368.5C 340.27,369.46 336.437,369.793 332.5,369.5C 331.52,347.297 331.353,324.63 332,301.5C 333.752,299.649 335.252,297.649 336.5,295.5 Z"/></g>
<g><path style="opacity:0.899" fill="#000000" d="M 365.5,297.5 C 367.722,297.178 369.556,297.845 371,299.5C 371.333,301.833 371.667,304.167 372,306.5C 372.5,328.497 372.667,350.497 372.5,372.5C 369.167,372.5 365.833,372.5 362.5,372.5C 362.333,353.83 362.5,335.164 363,316.5C 363.079,310.028 363.912,303.694 365.5,297.5 Z"/></g>
<g><path style="opacity:0.874" fill="#000000" d="M 309.5,299.5 C 310.833,299.5 312.167,299.5 313.5,299.5C 313.866,323.524 313.366,347.524 312,371.5C 309.619,372.435 307.119,372.768 304.5,372.5C 304.956,351.819 305.789,331.152 307,310.5C 307.409,306.698 308.243,303.031 309.5,299.5 Z"/></g>
</svg>
